<svg width="75" height="92" viewBox="0 0 75 92" fill="none" xmlns="http://www.w3.org/2000/svg">
<path d="M42.9038 66.3052H39.2312V78.9144H42.9038V66.3052Z" fill="#4D4D4D"/>
<path d="M55.6704 46.4615V33.5014H44.068C41.285 33.5014 39.0206 31.2281 39.0206 28.4347V18.2576H16.9451H4.04058C1.77471 18.2576 0 20.0375 0 22.3093V87.9476C0 90.2201 1.77471 92 4.04058 92H51.6298C53.8957 92 55.6704 90.2201 55.6704 87.9476V75.3287V62.2432V46.4615ZM9.86774 28.1706H31.72C32.5917 28.1706 33.2988 28.8806 33.2988 29.7568C33.2988 30.633 32.5917 31.3431 31.72 31.3431H9.86774C8.99597 31.3431 8.2889 30.633 8.2889 29.7568C8.2889 28.8806 8.99597 28.1706 9.86774 28.1706ZM18.2768 80.5008C18.2768 81.377 17.5698 82.087 16.698 82.087H9.86774C8.99597 82.087 8.2889 81.377 8.2889 80.5008V60.8343C8.2889 59.958 8.99597 59.248 9.86774 59.248H16.698C17.5698 59.248 18.2768 59.958 18.2768 60.8343V80.5008ZM32.1688 80.5008C32.1688 81.377 31.4618 82.087 30.59 82.087H23.7597C22.888 82.087 22.1809 81.377 22.1809 80.5008V68.6038C22.1809 67.7276 22.888 67.0176 23.7597 67.0176H30.59C31.4618 67.0176 32.1688 67.7276 32.1688 68.6038V80.5008ZM46.0616 80.5008C46.0616 81.377 45.3545 82.087 44.4827 82.087H37.6532C36.7815 82.087 36.0744 81.377 36.0744 80.5008V64.7191C36.0744 63.8428 36.7815 63.1328 37.6532 63.1328H44.4835C45.3553 63.1328 46.0623 63.8428 46.0623 64.7191L46.0616 80.5008ZM45.8026 52.5736H9.86774C8.99597 52.5736 8.2889 51.8635 8.2889 50.9873C8.2889 50.1111 8.99597 49.401 9.86774 49.401H45.8026C46.6744 49.401 47.3815 50.1111 47.3815 50.9873C47.3815 51.8635 46.6744 52.5736 45.8026 52.5736ZM45.8026 41.9928H9.86774C8.99597 41.9928 8.2889 41.2828 8.2889 40.4066C8.2889 39.5303 8.99597 38.8203 9.86774 38.8203H45.8026C46.6744 38.8203 47.3815 39.5303 47.3815 40.4066C47.3815 41.2828 46.6744 41.9928 45.8026 41.9928Z" fill="#4D4D4D"/>
<path d="M15.1199 62.4207H11.4465V78.9146H15.1199V62.4207Z" fill="#4D4D4D"/>
<path d="M61.4279 48.0479H58.8274V60.657H61.4279V48.0479Z" fill="#4D4D4D"/>
<path d="M29.0119 70.1895H25.3386V78.9146H29.0119V70.1895Z" fill="#4D4D4D"/>
<path d="M62.5919 12.0712H71.6962L66.7831 7.57286L60.7014 2.00464V10.1763C60.7014 11.2217 61.5494 12.0712 62.5919 12.0712Z" fill="#4D4D4D"/>
<path d="M62.5919 15.2438C59.8089 15.2438 57.5445 12.9705 57.5445 10.1771V0H22.5638C20.2979 0 18.5232 1.7799 18.5232 4.05245V15.0858H40.5995C40.6715 15.0858 40.7419 15.0962 40.8124 15.1058C40.831 15.108 40.8495 15.108 40.8681 15.111C40.9979 15.1333 41.1225 15.1755 41.242 15.229C41.2702 15.2416 41.2976 15.2557 41.3251 15.2705C41.4453 15.3336 41.561 15.4063 41.6627 15.499L47.1931 20.5627H64.3258C65.1976 20.5627 65.9047 21.2728 65.9047 22.149C65.9047 23.0252 65.1976 23.7353 64.3258 23.7353H50.6586L58.3125 30.7428C58.4193 30.8408 58.5046 30.955 58.5796 31.0752C58.5936 31.0982 58.61 31.1197 58.6233 31.1435H64.3258C65.1976 31.1435 65.9047 31.8535 65.9047 32.7297C65.9047 33.606 65.1976 34.316 64.3258 34.316H58.8274V44.876H63.0059C63.8777 44.876 64.5848 45.586 64.5848 46.4622V62.2439C64.5848 63.1202 63.8777 63.8302 63.0059 63.8302H58.8274V73.7432H70.153C72.4189 73.7432 74.1936 71.9633 74.1936 69.6915V15.2438H62.5919ZM50.2432 13.0855H28.3909C27.5192 13.0855 26.8121 12.3755 26.8121 11.4993C26.8121 10.623 27.5192 9.913 28.3909 9.913H50.2432C51.1149 9.913 51.822 10.623 51.822 11.4993C51.822 12.3755 51.1149 13.0855 50.2432 13.0855Z" fill="#4D4D4D"/>
<path d="M42.1782 28.4346C42.1782 29.4793 43.0263 30.3288 44.0679 30.3288H53.1722L48.2591 25.8304L42.1775 20.2622L42.1782 28.4346Z" fill="#4D4D4D"/>
</svg>
