<svg width="103" height="92" viewBox="0 0 103 92" fill="none" xmlns="http://www.w3.org/2000/svg">
<path d="M99.5285 56.5478C101.218 56.5478 102.593 55.1724 102.593 53.4783C102.593 51.7888 101.218 50.4089 99.5285 50.4089C99.0002 50.4089 98.5402 50.0537 98.4036 49.5436C98.267 49.0336 98.4902 48.4962 98.9456 48.232C99.6514 47.8222 100.162 47.1618 100.371 46.3694C100.585 45.577 100.476 44.7527 100.066 44.0422C99.656 43.3318 98.9957 42.8262 98.2032 42.6167C97.4108 42.4027 96.5866 42.512 95.8761 42.9219C95.4207 43.186 94.8423 43.1086 94.4689 42.7351C94.0955 42.3617 94.0181 41.7833 94.2868 41.328C94.6966 40.6221 94.8059 39.7932 94.5919 39.0008C94.3778 38.2084 93.8723 37.5481 93.1664 37.1381C92.456 36.7283 91.6317 36.619 90.8392 36.833C90.0468 37.0471 89.3865 37.5526 88.9766 38.2631C88.7124 38.723 88.1751 38.9462 87.665 38.805C87.1549 38.6684 86.7997 38.2084 86.7997 37.6801C86.7997 35.9906 85.4244 34.6152 83.7303 34.6152C82.0407 34.6152 80.6654 35.9906 80.6654 37.6801C80.6654 38.2084 80.3102 38.6684 79.8001 38.805C79.2901 38.9416 78.7527 38.7185 78.4885 38.2631C77.6415 36.7967 75.7607 36.2957 74.2987 37.1427C73.5883 37.5526 73.0782 38.213 72.8687 39.0054C72.6547 39.7978 72.7639 40.6221 73.1738 41.3326C73.4379 41.788 73.3605 42.3663 72.9871 42.7397C72.6137 43.1132 72.0353 43.1906 71.5799 42.9265C70.874 42.5166 70.0452 42.4073 69.2528 42.6213C68.4604 42.8354 67.8 43.3409 67.3901 44.0468C66.9802 44.7572 66.8709 45.5815 67.085 46.374C67.299 47.1664 67.8045 47.8267 68.515 48.2366C68.9704 48.5008 69.1936 49.0382 69.0569 49.5482C68.9203 50.0583 68.4603 50.4135 67.9321 50.4135C66.2425 50.4135 64.8672 51.7888 64.8672 53.4829C64.8672 55.1725 66.2425 56.5524 67.9321 56.5524C68.4603 56.5524 68.9203 56.9076 69.0569 57.4176C69.1936 57.9277 68.9704 58.4651 68.515 58.7292C67.8091 59.1391 67.299 59.7994 67.085 60.5919C66.8709 61.3843 66.9802 62.2086 67.3901 62.919C68.2326 64.3854 70.1179 64.8864 71.5799 64.0394C72.0353 63.7752 72.6137 63.8526 72.9871 64.2261C73.3605 64.5995 73.4379 65.1779 73.1738 65.6332C72.7639 66.3391 72.6547 67.168 72.8687 67.9604C73.0827 68.7528 73.5882 69.4132 74.2987 69.8231C75.7606 70.6656 77.6414 70.1646 78.4885 68.7028C78.7026 68.3384 79.0897 68.1198 79.495 68.1198C79.5952 68.1198 79.6954 68.1335 79.7956 68.1608C80.3056 68.2974 80.6608 68.762 80.6608 69.2857C80.6608 70.9752 82.0362 72.3506 83.7257 72.3506C85.4153 72.3506 86.7952 70.9752 86.7952 69.2857C86.7952 68.7574 87.1504 68.2974 87.6604 68.1608C88.1705 68.0196 88.7079 68.2473 88.972 68.7028C89.8145 70.1646 91.6999 70.6701 93.1618 69.8231C93.8677 69.4132 94.3778 68.7529 94.5873 67.9604C94.8014 67.168 94.6921 66.3437 94.2822 65.6378C94.0181 65.1778 94.0955 64.604 94.4644 64.2306C94.8378 63.8572 95.4162 63.7798 95.8715 64.0439C97.3334 64.8864 99.2142 64.3854 100.061 62.9236C100.471 62.2131 100.581 61.3889 100.366 60.5964C100.152 59.804 99.6469 59.1437 98.941 58.7338C98.4856 58.4696 98.2624 57.9322 98.3991 57.4222C98.5402 56.903 99.0048 56.5478 99.5285 56.5478ZM83.603 60.988C83.5985 60.9926 83.5985 60.9971 83.5939 61.0017C83.5848 61.0108 83.5711 61.0153 83.562 61.0244C83.5347 61.0472 83.5028 61.0791 83.4755 61.1019C83.4482 61.1246 83.4163 61.1337 83.389 61.1565C82.847 61.5664 82.1913 61.7941 81.5218 61.7941C81.3123 61.7941 81.1028 61.7713 80.8933 61.7303C80.2466 61.6028 79.6637 61.2658 79.2128 60.7649L75.3373 56.4157C74.1988 55.1359 74.3081 53.1686 75.5833 52.021C76.1981 51.4654 77.0042 51.1785 77.8285 51.2286C78.6573 51.2742 79.4179 51.643 79.9734 52.2624L81.3806 53.8427C91.7002 44.6708 93.5263 46.1873 94.1361 46.6973C94.5232 47.0207 94.7418 47.4943 94.7463 48.0271C94.7782 50.8096 87.0642 57.9324 83.603 60.988Z" fill="#4D4D4D"/>
<path d="M15.5152 7.83186H8.98461L8.97095 15.6557C12.6506 15.3643 15.5561 12.2812 15.5561 8.53311C15.5561 8.30085 15.538 8.06412 15.5152 7.83186Z" fill="#4D4D4D"/>
<path d="M8.91186 55.4275L8.89819 63.2014H15.7748C15.793 62.9919 15.8067 62.7778 15.8067 62.5683C15.8113 58.711 12.7373 55.5641 8.91186 55.4275Z" fill="#4D4D4D"/>
<path d="M93.2073 7.83179H86.0028C85.9982 7.92287 85.98 8.00939 85.98 8.10048C85.98 12.0443 89.1906 15.2504 93.1299 15.2504C93.139 15.2504 93.1526 15.2458 93.1618 15.2458L93.2073 7.83179Z" fill="#4D4D4D"/>
<path d="M71.6577 70.5464C71.1841 69.9681 70.8289 69.2941 70.6285 68.5472C70.4691 67.9506 70.4145 67.3496 70.4554 66.7529C69.071 66.844 67.6775 66.3931 66.5981 65.4914C66.5298 65.5051 66.4706 65.5324 66.3977 65.5324H7.73236C7.42269 65.5324 7.12667 65.4094 6.90807 65.1908C6.68948 64.9723 6.56651 64.6762 6.56651 64.362L6.65304 6.66195C6.65304 6.01982 7.17676 5.4961 7.81889 5.4961H94.383C94.6926 5.4961 94.9886 5.61906 95.2118 5.84222C95.4304 6.06081 95.5534 6.36138 95.5488 6.67106L95.4896 16.0752C95.4987 16.1026 95.5169 16.1299 95.5215 16.1572C95.5443 16.3212 95.5306 16.4851 95.4896 16.6354L95.3712 35.9267C96.068 36.6007 96.5872 37.4386 96.8467 38.3995C97.0061 38.9916 97.0607 39.5972 97.0198 40.1893C97.6118 40.1438 98.2174 40.203 98.8096 40.3624C99.5929 40.5719 100.285 40.959 100.886 41.4645L101.164 0L0 0.00455409V71.6493H71.2938L71.6577 70.5464Z" fill="#4D4D4D"/>
<path d="M80.301 73.4201C79.709 72.9283 79.2172 72.3181 78.8801 71.6167C77.359 72.6459 75.3689 72.8509 73.6201 72.0584L68.3647 88.0842L74.5082 85.9984C74.9772 85.8435 75.501 85.9938 75.8061 86.39L79.6634 91.3859C81.444 88.0295 83.1792 84.6959 83.498 83.9309C83.5162 83.817 83.5572 83.7077 83.6073 83.603L80.342 73.9255C80.2874 73.757 80.2783 73.5886 80.301 73.4201Z" fill="#4D4D4D"/>
<path d="M88.5987 71.6165C87.7243 73.4199 85.8708 74.6677 83.7349 74.6677C83.4981 74.6677 83.2658 74.6449 83.0381 74.6176L88.3208 90.2843L90.7481 85.1335C90.8801 84.8512 91.1215 84.6372 91.413 84.5324C91.709 84.4277 92.0278 84.4459 92.3101 84.5825L98.4444 87.5382L93.7082 72.1315C91.9958 72.8465 90.0742 72.6184 88.5987 71.6165Z" fill="#4D4D4D"/>
<path d="M68.6616 40.3717C69.2537 40.2123 69.8548 40.1531 70.4514 40.1986C70.4105 39.6021 70.4651 39.001 70.6245 38.4088C70.9979 37.0153 71.8905 35.8494 73.143 35.1299C74.9919 34.0597 77.2143 34.2145 78.8766 35.3439C79.751 33.5405 81.5999 32.2927 83.7358 32.2927C85.8718 32.2927 87.7207 33.5359 88.5951 35.3394C89.0915 35.0024 89.6425 34.7519 90.2345 34.5925C91.1726 34.342 92.1336 34.3693 93.0444 34.6153L93.1492 17.5881H93.131C87.9028 17.5881 83.6494 13.3346 83.6494 8.1065C83.6494 8.01542 83.6585 7.92889 83.663 7.8378L17.8475 7.83325C17.8657 8.06551 17.8885 8.29777 17.8885 8.53003C17.8885 13.5668 13.9356 17.6929 8.97164 17.9843L8.91699 53.0915C14.0267 53.2281 18.1436 57.4224 18.1436 62.564C18.1436 62.7735 18.1254 62.9875 18.1117 63.197H64.9962C64.4042 61.5529 64.6501 59.7405 65.6019 58.3332C63.7985 57.4588 62.5507 55.6053 62.5507 53.4694C62.5507 51.3335 63.7939 49.4845 65.5974 48.6102C65.2604 48.1138 65.0099 47.5627 64.8505 46.9707C64.4771 45.5772 64.6684 44.1244 65.3879 42.8766C66.1075 41.6334 67.2681 40.7406 68.6616 40.3717ZM18.0931 21.1352H18.0976L84.1871 21.454C84.8338 21.4586 85.3484 21.9823 85.3484 22.6244C85.3438 23.2665 84.8247 23.7857 84.1825 23.7857H84.178L18.0885 23.4669C17.4418 23.4624 16.9272 22.9386 16.9272 22.2965C16.9272 21.6544 17.4509 21.1352 18.0931 21.1352ZM58.1958 45.0537H58.1913L18.9757 44.8989C18.329 44.8943 17.8144 44.3706 17.8144 43.7285C17.819 43.0864 18.3382 42.5672 18.9803 42.5672H18.9848L58.2004 42.722C58.8471 42.7266 59.3617 43.2503 59.3617 43.8924C59.3571 44.5346 58.838 45.0537 58.1958 45.0537ZM62.7727 37.4757L18.3517 37.8036H18.3425C17.7004 37.8036 17.1813 37.289 17.1767 36.6469C17.1721 36.0048 17.6913 35.4765 18.3334 35.4719L62.7545 35.1441H62.7636C63.4057 35.1441 63.9249 35.6587 63.9295 36.3008C63.934 36.9475 63.4148 37.4712 62.7727 37.4757ZM18.3062 30.936H18.3016C17.6595 30.936 17.1403 30.4169 17.1358 29.7747C17.1312 29.1326 17.6549 28.6089 18.2971 28.6044L70.3591 28.4586H70.3636C71.0058 28.4586 71.5249 28.9778 71.5295 29.6199C71.534 30.262 71.0103 30.7858 70.3682 30.7903L18.3062 30.936Z" fill="#4D4D4D"/>
</svg>
