<svg width="110" height="86" viewBox="0 0 110 86" fill="none" xmlns="http://www.w3.org/2000/svg">
<path fill-rule="evenodd" clip-rule="evenodd" d="M83.742 14.5309C84.6717 16.9879 85.1014 19.3551 85.2381 21.9332C85.242 21.9801 85.2264 22.023 85.1913 22.0582C85.16 22.0934 85.117 22.109 85.0702 22.109H75.4569C75.41 22.109 75.367 22.0934 75.3358 22.0582C75.3045 22.023 75.2889 21.9801 75.2889 21.9332C75.5467 17.1324 76.953 12.5465 80.1366 8.83119C80.1678 8.79213 80.2108 8.7726 80.2616 8.7726C80.3124 8.7726 80.3553 8.79213 80.3866 8.83119C81.8866 10.5695 82.9256 12.3708 83.742 14.5309ZM69.637 63.0079V65.9649C69.637 67.9454 68.0159 69.5665 66.0354 69.5665H43.6684C43.5786 69.5665 43.5005 69.6407 43.5005 69.7345V78.8204C43.5005 78.9102 43.5747 78.9883 43.6684 78.9883H50.2387C50.9301 78.9883 51.4887 79.5469 51.4887 80.2383C51.4887 80.9297 50.9301 81.4883 50.2387 81.4883L34.2657 81.4844C33.5743 81.4844 33.0157 80.9258 33.0157 80.2344C33.0157 79.543 33.5743 78.9844 34.2657 78.9844H40.836C40.9259 78.9844 41.004 78.9102 41.004 78.8165V69.7306C41.004 69.6407 40.9298 69.5626 40.836 69.5626H18.469C16.4885 69.5626 14.8674 67.9415 14.8674 65.961V63.004C14.8674 62.9141 14.9416 62.836 15.0354 62.836H69.4694C69.5631 62.8399 69.637 62.9142 69.637 63.0079ZM28.746 50.2029C28.746 42.7732 34.8241 36.6989 42.25 36.6989C49.6797 36.6989 55.754 42.777 55.754 50.2029V60.1756C55.754 60.2654 55.6798 60.3436 55.5861 60.3436H28.9141C28.8242 60.3436 28.7461 60.2693 28.7461 60.1756L28.746 50.2029ZM42.383 55.5818L45.6018 51.4295C45.6331 51.3865 45.6448 51.3357 45.6292 51.285L42.4104 39.351C42.3908 39.2767 42.3244 39.226 42.2502 39.226C42.1721 39.226 42.1096 39.2767 42.0901 39.351L38.8713 51.285C38.8556 51.3357 38.8673 51.3865 38.8986 51.4295L42.1174 55.5818C42.1486 55.6248 42.1955 55.6482 42.2502 55.6482C42.3049 55.6482 42.3518 55.6248 42.383 55.5818ZM42.2541 19.2338C46.5158 19.2338 49.9729 22.6908 49.9729 26.9526C49.9729 31.2144 46.5159 34.6714 42.2541 34.6714C37.9924 34.6714 34.5353 31.2144 34.5353 26.9526C34.5353 22.687 37.9923 19.2338 42.2541 19.2338ZM18.4731 28.9799C16.4926 28.9799 14.8715 30.601 14.8715 32.5815V60.1755C14.8715 60.2653 14.9457 60.3435 15.0395 60.3435H26.0865C26.1763 60.3435 26.2545 60.2692 26.2545 60.1755V50.2028C26.2545 43.57 30.3365 37.8478 36.1178 35.4298C36.1764 35.4064 36.2115 35.3556 36.2193 35.297C36.2271 35.2345 36.2037 35.1798 36.1529 35.1446C34.2115 33.6954 32.8013 31.5665 32.2701 29.1134C32.2545 29.0353 32.1881 28.9806 32.1061 28.9806L18.4731 28.9799ZM52.4031 28.9799C52.325 28.9799 52.2586 29.0346 52.2391 29.1127C51.7117 31.5658 50.3016 33.6908 48.3563 35.1439C48.3055 35.1791 48.282 35.2377 48.2899 35.2962C48.2977 35.3587 48.3328 35.4056 48.3914 35.4291C54.1726 37.8471 58.2547 43.5697 58.2547 50.2021V60.1748C58.2547 60.2646 58.3289 60.3427 58.4227 60.3427H69.4697C69.5595 60.3427 69.6377 60.2685 69.6377 60.1748V36.7018C69.6377 36.6471 69.6142 36.6002 69.5712 36.5689C67.0868 34.6861 65.1689 32.0377 64.165 29.0884C64.1416 29.0181 64.0791 28.9752 64.0088 28.9752L52.4031 28.9799ZM83.1841 8.51889C83.1138 8.50327 83.0474 8.53452 83.0122 8.59311C82.9732 8.65171 82.9771 8.72592 83.0161 8.78061L83.0747 8.86264C85.813 12.6751 87.0981 17.2962 87.3286 21.9486C87.3326 22.0385 87.4068 22.1088 87.4966 22.1088H94.9654C95.0123 22.1088 95.0553 22.0893 95.0865 22.0541C95.1178 22.019 95.1334 21.976 95.1295 21.9291L95.1256 21.8861C94.5709 15.308 89.7272 9.86615 83.2816 8.54215L83.1841 8.51889ZM87.4966 24.1909H94.9654C95.0123 24.1909 95.0553 24.2104 95.0904 24.2456C95.1217 24.2807 95.1373 24.3237 95.1334 24.3745C94.9068 26.812 94.231 28.9136 92.9928 30.9331C90.8834 34.3745 87.4108 36.9097 83.2858 37.7573L83.1842 37.7768C83.1178 37.7925 83.0514 37.7651 83.0124 37.7065C82.9733 37.6479 82.9772 37.5776 83.0163 37.519C84.1725 35.8706 84.9499 34.4682 85.696 32.4995C86.7038 29.8354 87.196 27.1831 87.3327 24.3472C87.3327 24.2613 87.4068 24.1909 87.4966 24.1909ZM75.4576 24.1909C75.4107 24.1909 75.3678 24.2065 75.3365 24.2417C75.3053 24.2768 75.2897 24.3159 75.2897 24.3667C75.5475 29.1831 76.9655 33.769 80.1374 37.4687C80.1686 37.5077 80.2155 37.5273 80.2624 37.5273C80.3131 37.5273 80.3561 37.5077 80.3874 37.4687C83.5554 33.7695 84.9733 29.1835 85.2351 24.3667C85.239 24.3198 85.2233 24.2768 85.1882 24.2417C85.1569 24.2065 85.114 24.1909 85.0671 24.1909H75.4576ZM73.2037 24.3901C73.4068 28.9721 74.7623 33.6831 77.4576 37.4371L77.5162 37.5191C77.5553 37.5777 77.5592 37.6481 77.5201 37.7066C77.4811 37.7652 77.4147 37.7926 77.3482 37.7809L77.2506 37.7613C70.9576 36.4683 66.0206 30.7027 65.4026 24.3783C65.3987 24.3315 65.4143 24.2846 65.4456 24.2494C65.4768 24.2143 65.5198 24.1947 65.5706 24.1947H73.0394C73.1292 24.1947 73.2034 24.265 73.2073 24.3549L73.2037 24.3901ZM77.2506 8.53811C70.9147 9.83891 66.1096 15.1279 65.4346 21.5731V21.577L65.4034 21.9247C65.3995 21.9716 65.4151 22.0145 65.4463 22.0536C65.4776 22.0887 65.5206 22.1083 65.5674 22.1083H73.0362C73.1222 22.1083 73.1964 22.0419 73.2042 21.9559L73.3526 20.0536V20.0497C73.5909 17.9247 74.0831 15.8114 74.8448 13.8036C75.5909 11.8348 76.3682 10.4325 77.5245 8.78413C77.5636 8.72554 77.5675 8.65522 77.5284 8.59663C77.4894 8.53804 77.423 8.51069 77.3566 8.52632L77.2506 8.53811Z" fill="#4D4D4D"/>
</svg>
