<svg width="73" height="72" viewBox="0 0 73 72" fill="none" xmlns="http://www.w3.org/2000/svg">
<path d="M60.0082 12.9857C62.781 12.9857 65.0454 10.7212 65.0454 7.94844V5.49914C65.0454 2.72636 62.781 0.461914 60.0082 0.461914C57.2354 0.461914 54.9709 2.72636 54.9709 5.49914V7.94844C54.9709 10.7212 57.2354 12.9857 60.0082 12.9857Z" fill="#4D4D4D"/>
<path d="M12.2238 12.5237C14.9965 12.5237 17.261 10.2593 17.261 7.48652V5.03723C17.261 2.26444 14.9965 0 12.2238 0C9.45096 0 7.18652 2.26444 7.18652 5.03723V7.48652C7.18652 10.2593 9.45096 12.5237 12.2238 12.5237Z" fill="#4D4D4D"/>
<path d="M12.3469 19.0858L12.8245 17.5454H11.8694L12.3469 19.0858Z" fill="#4D4D4D"/>
<path d="M19.6025 17.3606H18.8785L16.6602 25.2014C16.537 25.6174 16.1827 25.9254 15.7514 25.9717C15.3201 26.0179 14.9041 25.8022 14.6885 25.4325L12.4549 21.4582H12.2854L10.2212 25.3863C10.2058 25.4171 10.1904 25.4325 10.175 25.4633C9.94394 25.833 9.52802 26.0179 9.0967 25.9563C8.66538 25.8946 8.32648 25.5865 8.21865 25.1552L6.18527 17.3452H5.27642C3.78219 17.3452 2.36499 17.9768 1.36371 19.0859C0.362425 20.195 -0.115111 21.6738 0.0235287 23.1527C0.0235287 23.1835 0.0235287 23.2297 0.0235287 23.2605V38.3568L4.90671 45.0115C5.02995 45.1809 5.10697 45.3812 5.10697 45.5968L6.20068 69.0577C6.24689 70.4595 7.38681 71.5532 8.77321 71.5532H16.0903C17.4921 71.5532 18.6166 70.4595 18.6628 69.0731L19.7565 45.5968C19.7719 45.3812 19.8335 45.1809 19.9568 45.0115L24.8092 38.3414V23.2451C24.8092 23.2143 24.8092 23.1681 24.8092 23.1373C24.9632 21.6584 24.4703 20.1796 23.469 19.0705C22.5139 17.9922 21.0967 17.3606 19.6025 17.3606Z" fill="#4D4D4D"/>
<path d="M67.3869 17.8228H66.1853L60.8554 21.6123C60.8246 21.6277 60.8092 21.6431 60.7784 21.6739C60.7168 21.7201 60.6398 21.7509 60.5627 21.7663C60.4549 21.7971 60.3471 21.8125 60.2393 21.8125C60.116 21.8125 60.0082 21.7971 59.8849 21.7509C59.8079 21.7201 59.7309 21.6893 59.6693 21.6431C59.6385 21.6277 59.6077 21.6123 59.5923 21.5815L54.4626 17.792H53.0762C51.582 17.792 50.1648 18.4236 49.1635 19.5327C48.1622 20.6418 47.6847 22.1206 47.8233 23.5994C47.8233 23.6302 47.8233 23.6765 47.8233 23.7073V38.8035L52.7065 45.4582C52.8297 45.6277 52.9068 45.8279 52.9068 46.0436L54.0005 69.5044C54.0467 70.9062 55.1866 72 56.573 72H63.8901C65.2919 72 66.4164 70.9062 66.4626 69.5198L67.5563 46.0436C67.5717 45.8279 67.6333 45.6277 67.7566 45.4582L72.609 38.7881V23.6919C72.609 23.6611 72.609 23.6148 72.609 23.584C72.763 22.1052 72.2701 20.6264 71.2688 19.5173C70.2983 18.4544 68.8657 17.8228 67.3869 17.8228Z" fill="#4D4D4D"/>
<path d="M43.3869 29.1913L31.8799 29.1605L34.1289 26.9114C34.5448 26.4955 34.5448 25.8023 34.1289 25.3864C33.713 24.9705 33.0198 24.9705 32.6039 25.3864L28.5217 29.4686C28.4755 29.5148 28.4293 29.561 28.3985 29.6072C28.3985 29.6072 28.3985 29.6226 28.3831 29.6226C28.3677 29.638 28.3523 29.6688 28.3369 29.6996L28.3215 29.715C28.3061 29.7304 28.3061 29.7612 28.2907 29.7921C28.2907 29.8075 28.2753 29.8075 28.2753 29.8229C28.2599 29.8383 28.2599 29.8691 28.2445 29.8845C28.2445 29.8999 28.2445 29.8999 28.2291 29.9153C28.2291 29.9461 28.2136 29.9615 28.2136 29.9923C28.2136 30.0077 28.2136 30.0077 28.2136 30.0231C28.2136 30.0539 28.1982 30.0847 28.1982 30.1155V30.1309C28.1982 30.208 28.1982 30.2696 28.1982 30.3466C28.1982 30.3774 28.2136 30.4082 28.2136 30.439C28.2136 30.4544 28.2136 30.4544 28.2136 30.4698C28.2136 30.5007 28.2291 30.5161 28.2291 30.5469C28.2291 30.5623 28.2445 30.5623 28.2445 30.5777C28.2445 30.5931 28.2599 30.6239 28.2753 30.6393C28.2753 30.6547 28.2907 30.6547 28.2907 30.6701C28.3061 30.6855 28.3061 30.7163 28.3215 30.7317C28.3215 30.7471 28.3369 30.7471 28.3369 30.7625C28.3523 30.7779 28.3677 30.8087 28.3831 30.8241C28.3831 30.8395 28.3985 30.8395 28.3985 30.855C28.4139 30.8704 28.4293 30.9012 28.4447 30.9166C28.4601 30.932 28.4601 30.932 28.4755 30.9474C28.4909 30.9628 28.5063 30.9782 28.5217 30.9936L32.6039 35.0757C32.8196 35.2914 33.0968 35.3992 33.3587 35.3992C33.6206 35.3992 33.9133 35.2914 34.1135 35.0757C34.5294 34.6598 34.5294 33.9666 34.1135 33.5507L31.8799 31.3171L43.3715 31.3479C43.9723 31.3479 44.4498 30.8704 44.4498 30.2696C44.4653 29.6688 43.9877 29.1913 43.3869 29.1913Z" fill="#4D4D4D"/>
<path d="M44.4498 41.6842C44.4498 41.6534 44.4344 41.6226 44.4344 41.5917C44.4344 41.5763 44.4344 41.5763 44.4344 41.5609C44.4344 41.5301 44.419 41.5147 44.419 41.4839C44.419 41.4685 44.4036 41.4685 44.4036 41.4531C44.4036 41.4377 44.3882 41.4069 44.3728 41.3915C44.3728 41.3761 44.3574 41.3761 44.3574 41.3607C44.342 41.3453 44.342 41.3145 44.3266 41.2991C44.3266 41.2837 44.3112 41.2837 44.3112 41.2683C44.2958 41.2528 44.2804 41.222 44.265 41.2066C44.265 41.1912 44.2496 41.1912 44.2496 41.1758C44.2342 41.1604 44.2188 41.1296 44.2034 41.1142C44.188 41.0988 44.188 41.0834 44.1726 41.0834C44.1572 41.068 44.1418 41.0526 44.1418 41.0372L40.0596 36.9396C39.6437 36.5237 38.9505 36.5237 38.5346 36.9396C38.1187 37.3555 38.1187 38.0487 38.5346 38.4647L40.7682 40.6983L29.2765 40.6675C28.6758 40.6675 28.1982 41.145 28.1982 41.7458C28.1982 42.3466 28.6758 42.8241 29.2765 42.8241L40.7836 42.8549L38.5346 45.1039C38.1187 45.5199 38.1187 46.2131 38.5346 46.629C38.7502 46.8446 39.0275 46.9371 39.3048 46.9371C39.5821 46.9371 39.8593 46.8292 40.075 46.629L44.1572 42.5468C44.2034 42.5006 44.2496 42.4544 44.2804 42.4082C44.2804 42.4082 44.2804 42.3928 44.2958 42.3928C44.3112 42.3774 44.3266 42.3466 44.342 42.3157L44.3574 42.3003C44.3728 42.2849 44.3728 42.2541 44.3882 42.2233C44.3882 42.2079 44.4036 42.2079 44.4036 42.1925C44.419 42.1771 44.419 42.1463 44.4344 42.1309C44.4344 42.1155 44.4344 42.1155 44.4498 42.1001C44.4498 42.0693 44.4652 42.0539 44.4652 42.0231C44.4652 42.0077 44.4652 42.0077 44.4652 41.9923C44.4652 41.9614 44.4807 41.9306 44.4807 41.9152V41.8998C44.4652 41.8228 44.4653 41.7612 44.4498 41.6842Z" fill="#4D4D4D"/>
</svg>
