<svg width="76" height="72" viewBox="0 0 76 72" fill="none" xmlns="http://www.w3.org/2000/svg">
<path d="M50.3471 62.0031L43.092 63.2229C42.6566 63.296 42.2345 63.3292 41.8157 63.3292H41.8124C39.5358 63.3292 37.3889 62.3255 35.9232 60.5707C34.4675 58.8259 33.8593 56.5393 34.2648 54.296L35.4812 47.0973C35.7304 45.5585 36.4982 44.0729 37.6382 42.9397L56.6351 23.9427L56.6318 5.31758C56.6318 2.39291 54.2389 0 51.3142 0H5.31758C2.39291 0 0 2.39291 0 5.31758V66.6824C0 69.6071 2.39291 72 5.31758 72H51.3142C54.2389 72 56.6318 69.6071 56.6318 66.6824V57.7293L54.5047 59.8564C53.3781 60.9797 51.9025 61.744 50.3471 62.0031ZM13.8617 11.5891H42.7698C44.2388 11.5891 45.4285 12.7789 45.4285 14.2479C45.4285 15.7169 44.2388 16.9067 42.7698 16.9067H13.8617C12.3927 16.9067 11.2029 15.7169 11.2029 14.2479C11.2029 12.7822 12.396 11.5891 13.8617 11.5891ZM13.8617 23.8731H42.7698C44.2388 23.8731 45.4285 25.0629 45.4285 26.5319C45.4285 28.0009 44.2388 29.1907 42.7698 29.1907H13.8617C12.3927 29.1907 11.2029 28.0009 11.2029 26.5319C11.2029 25.0662 12.396 23.8731 13.8617 23.8731ZM13.8617 36.1597H28.3153C29.7843 36.1597 30.9741 37.3495 30.9741 38.8185C30.9741 40.2875 29.7843 41.4773 28.3153 41.4773H13.8617C12.3927 41.4773 11.2029 40.2875 11.2029 38.8185C11.2029 37.3495 12.396 36.1597 13.8617 36.1597ZM29.8008 60.4079H13.8481C12.3791 60.4079 11.1893 59.2181 11.1893 57.7491C11.1893 56.28 12.3791 55.0903 13.8481 55.0903H29.8008C31.2698 55.0903 32.4596 56.28 32.4596 57.7491C32.4596 59.2181 31.2698 60.4079 29.8008 60.4079Z" fill="#4D4D4D"/>
<path d="M73.1301 24.3487C70.5511 21.7431 66.3501 21.7431 63.7448 24.3487L61.0793 27.0142L70.4519 36.3867L73.1306 33.708C75.7096 31.129 75.7091 26.9277 73.1301 24.3487Z" fill="#4D4D4D"/>
<path d="M41.3837 46.7088C41.0381 47.0545 40.7988 47.5065 40.719 47.985L39.496 55.2435C39.2035 56.8653 40.6127 58.2479 42.208 57.9821L49.4664 56.7591C49.945 56.6793 50.397 56.44 50.7426 56.0944L66.6886 40.1484L57.316 30.7759L41.3837 46.7088Z" fill="#4D4D4D"/>
</svg>
