<svg width="68" height="91" viewBox="0 0 68 91" fill="none" xmlns="http://www.w3.org/2000/svg">
<path d="M48.6987 74.7927H9.87072C7.55432 74.7927 5.99962 77.1638 6.92152 79.2888L10.1598 86.7497C11.1754 89.1013 13.4957 90.6247 16.0582 90.6247H42.5112C45.0737 90.6247 47.394 89.1013 48.4135 86.7536L51.6518 79.2927C52.5698 77.1638 51.0151 74.7927 48.6987 74.7927Z" fill="#4D4D4D"/>
<path d="M50.3006 45.5589C45.8709 45.5589 42.1561 42.473 41.1756 38.3441C40.3045 37.9222 39.4647 37.4417 38.66 36.9027C37.7928 37.1605 36.8944 37.2933 35.9881 37.2933C32.6522 37.2933 29.5389 35.4964 27.8631 32.6058C26.6131 30.4417 26.2772 27.9105 26.9256 25.4925C27.3865 23.7659 28.3123 22.2347 29.5975 21.0511C29.5311 20.1214 29.5311 19.1839 29.5975 18.2581C27.6209 16.4222 26.5702 13.8362 26.617 11.2112C11.734 12.5667 0 25.1022 0 40.3592C0 47.8358 2.8555 54.6832 7.5156 59.8672C9.789 62.4024 11.5 65.3516 12.4844 68.543H26.1484L26.1445 56L19.5195 53.3438C18.332 52.875 17.5507 51.7188 17.5507 50.4376V44.3126C17.5507 42.5938 18.9569 41.1876 20.6757 41.1876C22.4257 41.1876 23.8007 42.5938 23.8007 44.3126V48.3126L29.2695 50.5001L34.7383 48.3126V44.3126C34.7383 42.5938 36.1445 41.1876 37.8633 41.1876C39.6133 41.1876 40.9883 42.5938 40.9883 44.3126V50.4376C40.9883 51.7188 40.2383 52.8751 39.0508 53.3438L32.3946 56V68.543H46.0786C47.063 65.3555 48.7739 62.4063 51.0474 59.8672C55.6646 54.7227 58.5083 47.9532 58.5552 40.5472C56.9849 43.516 53.8904 45.5589 50.3006 45.5589Z" fill="#4D4D4D"/>
<path d="M66.1757 25.2108L64.121 24.0233C65.0194 21.1717 65.0194 18.1288 64.121 15.2811L66.1757 14.0936C67.6718 13.2303 68.1835 11.3202 67.3202 9.82411C66.453 8.32801 64.539 7.81241 63.0507 8.67961L61.0116 9.85931C60.8631 9.69525 60.7538 9.50775 60.5975 9.3515C58.5584 7.3124 56.0545 6.0312 53.4217 5.457L53.4256 3.125C53.4256 1.3984 52.0272 0 50.3006 0C48.574 0 47.1756 1.3984 47.1756 3.125V5.4609C44.5467 6.03512 42.0428 7.3125 39.9998 9.3554C39.8436 9.51165 39.7381 9.69915 39.5858 9.86321L37.5467 8.68351C36.0545 7.82023 34.1405 8.33195 33.2772 9.82801C32.4139 11.3202 32.9256 13.2342 34.4217 14.0975L36.4764 15.285C35.5779 18.1366 35.5779 21.1795 36.4764 24.0272L34.4217 25.2108C32.9256 26.0741 32.4139 27.9842 33.2772 29.4803C33.8592 30.4842 34.9061 31.0428 35.9881 31.0428C36.5193 31.0428 37.0545 30.91 37.5467 30.6248L39.5858 29.4451C39.7342 29.6092 39.8436 29.7928 39.9998 29.949C42.0389 31.9881 44.5467 33.2693 47.1756 33.8435V36.1794C47.1756 37.906 48.574 39.3044 50.3006 39.3044C52.0272 39.3044 53.4256 37.906 53.4256 36.1794V33.8435C56.0545 33.2693 58.5584 31.9919 60.6014 29.949C60.7577 29.7928 60.867 29.6053 61.0155 29.4412L63.0546 30.6209C63.5468 30.9061 64.0819 31.0389 64.6132 31.0389C65.6952 31.0389 66.746 30.4803 67.3241 29.4764C68.1874 27.9881 67.6717 26.0741 66.1757 25.2108ZM56.1796 25.535C52.9374 28.7772 47.6562 28.7772 44.4176 25.535C41.1754 22.2928 41.1754 17.0155 44.4176 13.777C46.0387 12.1559 48.1676 11.3473 50.3004 11.3473C52.4332 11.3473 54.5582 12.1598 56.1832 13.777C59.4215 17.0153 59.4218 22.2887 56.1796 25.535Z" fill="#4D4D4D"/>
</svg>
