<?xml version="1.0" encoding="UTF-8"?>
<svg xmlns="http://www.w3.org/2000/svg" viewBox="0 0 256 256" width="256" height="256" aria-hidden="true">
  <defs>
    <linearGradient id="g" x1="0" x2="1" y1="0" y2="1">
      <stop offset="0%" stop-color="#B92B27"/>
      <stop offset="100%" stop-color="#8e1f1c"/>
    </linearGradient>
  </defs>
  <rect width="256" height="256" rx="56" fill="url(#g)"/>
  <path fill="#fff" d="M128 44c-46.4 0-84 37.6-84 84s37.6 84 84 84c13.8 0 26.8-3.3 38.3-9.2l15.5 15.2c4.1 4 10.7 3.9 14.7-.2 4-4.1 3.9-10.7-.2-14.7l-13.7-13.5C195.4 172 212 147.1 212 128c0-46.4-37.6-84-84-84zm0 24c33.2 0 60 26.8 60 60 0 13.7-4.6 26.3-12.3 36.2-7.7-10-19.8-16.5-33.5-16.5h-12c-11 0-20-9-20-20v-8c0-11 9-20 20-20h12c5.5 0 10-4.5 10-10s-4.5-10-10-10h-12c-22.1 0-40 17.9-40 40v8c0 22.1 17.9 40 40 40h12c8.2 0 15.5 3.9 20.1 9.9-9.1 5.4-19.8 8.6-31.1 8.6-33.2 0-60-26.8-60-60s26.8-60 60-60z"/>
</svg>

